<svg width="137" height="137" viewBox="0 0 137 137" fill="none" xmlns="http://www.w3.org/2000/svg">
<g id="ClipboardData">
<path id="Vector" d="M34.25 94.1875C34.25 91.9166 35.1521 89.7387 36.7579 88.1329C38.3637 86.5271 40.5416 85.625 42.8125 85.625C45.0834 85.625 47.2613 86.5271 48.8671 88.1329C50.4729 89.7387 51.375 91.9166 51.375 94.1875V102.75C51.375 105.021 50.4729 107.199 48.8671 108.805C47.2613 110.41 45.0834 111.312 42.8125 111.312C40.5416 111.312 38.3637 110.41 36.7579 108.805C35.1521 107.199 34.25 105.021 34.25 102.75V94.1875ZM85.625 59.9375C85.625 57.6666 86.5271 55.4887 88.1329 53.8829C89.7387 52.2771 91.9166 51.375 94.1875 51.375C96.4584 51.375 98.6363 52.2771 100.242 53.8829C101.848 55.4887 102.75 57.6666 102.75 59.9375V102.75C102.75 105.021 101.848 107.199 100.242 108.805C98.6363 110.41 96.4584 111.312 94.1875 111.312C91.9166 111.312 89.7387 110.41 88.1329 108.805C86.5271 107.199 85.625 105.021 85.625 102.75V59.9375ZM59.9375 77.0625C59.9375 74.7916 60.8396 72.6137 62.4454 71.0079C64.0512 69.4021 66.2291 68.5 68.5 68.5C70.7709 68.5 72.9488 69.4021 74.5546 71.0079C76.1604 72.6137 77.0625 74.7916 77.0625 77.0625V102.75C77.0625 105.021 76.1604 107.199 74.5546 108.805C72.9488 110.41 70.7709 111.312 68.5 111.312C66.2291 111.312 64.0512 110.41 62.4454 108.805C60.8396 107.199 59.9375 105.021 59.9375 102.75V77.0625Z" fill="black" fill-opacity="0.7"/>
<path id="Vector_2" d="M34.25 12.8438H25.6875C21.1457 12.8438 16.7899 14.648 13.5783 17.8595C10.3667 21.0711 8.5625 25.4269 8.5625 29.9688V119.875C8.5625 124.417 10.3667 128.773 13.5783 131.984C16.7899 135.196 21.1457 137 25.6875 137H111.312C115.854 137 120.21 135.196 123.422 131.984C126.633 128.773 128.438 124.417 128.438 119.875V29.9688C128.438 25.4269 126.633 21.0711 123.422 17.8595C120.21 14.648 115.854 12.8438 111.312 12.8438H102.75V21.4062H111.312C113.583 21.4062 115.761 22.3084 117.367 23.9141C118.973 25.5199 119.875 27.6978 119.875 29.9688V119.875C119.875 122.146 118.973 124.324 117.367 125.93C115.761 127.535 113.583 128.438 111.312 128.438H25.6875C23.4166 128.438 21.2387 127.535 19.6329 125.93C18.0271 124.324 17.125 122.146 17.125 119.875V29.9688C17.125 27.6978 18.0271 25.5199 19.6329 23.9141C21.2387 22.3084 23.4166 21.4062 25.6875 21.4062H34.25V12.8438Z" fill="black" fill-opacity="0.7"/>
<path id="Vector_3" d="M81.3438 8.5625C82.4792 8.5625 83.5682 9.01356 84.3711 9.81645C85.1739 10.6193 85.625 11.7083 85.625 12.8438V21.4062C85.625 22.5417 85.1739 23.6307 84.3711 24.4335C83.5682 25.2364 82.4792 25.6875 81.3438 25.6875H55.6562C54.5208 25.6875 53.4318 25.2364 52.629 24.4335C51.8261 23.6307 51.375 22.5417 51.375 21.4062V12.8438C51.375 11.7083 51.8261 10.6193 52.629 9.81645C53.4318 9.01356 54.5208 8.5625 55.6562 8.5625H81.3438ZM55.6562 0C52.2499 0 48.983 1.35318 46.5743 3.76185C44.1657 6.17052 42.8125 9.43738 42.8125 12.8438V21.4062C42.8125 24.8126 44.1657 28.0795 46.5743 30.4882C48.983 32.8968 52.2499 34.25 55.6562 34.25H81.3438C84.7501 34.25 88.017 32.8968 90.4257 30.4882C92.8343 28.0795 94.1875 24.8126 94.1875 21.4062V12.8438C94.1875 9.43738 92.8343 6.17052 90.4257 3.76185C88.017 1.35318 84.7501 0 81.3438 0L55.6562 0Z" fill="black" fill-opacity="0.7"/>
</g>
</svg>
