<svg width="127" height="127" viewBox="0 0 127 127" fill="none" xmlns="http://www.w3.org/2000/svg">
<g id="Newspaper" clip-path="url(#clip0_4_38)">
<path id="Vector" d="M2.38624e-05 19.8438C2.38624e-05 16.686 1.25443 13.6576 3.48728 11.4248C5.72014 9.19191 8.74854 7.9375 11.9063 7.9375H99.2188C102.377 7.9375 105.405 9.19191 107.638 11.4248C109.871 13.6576 111.125 16.686 111.125 19.8438V103.41C111.125 105.791 110.728 108.601 109.236 111.125H115.094C116.146 111.125 117.156 110.707 117.9 109.963C118.644 109.218 119.063 108.209 119.063 107.156V35.7188C119.063 34.6662 119.481 33.6567 120.225 32.9124C120.969 32.1681 121.979 31.75 123.031 31.75C124.084 31.75 125.093 32.1681 125.838 32.9124C126.582 33.6567 127 34.6662 127 35.7188V107.156C127 110.314 125.746 113.342 123.513 115.575C121.28 117.808 118.252 119.062 115.094 119.062H11.8825C10.32 119.062 8.77294 118.754 7.32974 118.156C5.88654 117.557 4.57558 116.68 3.47188 115.574C2.36818 114.468 1.49342 113.155 0.897677 111.711C0.30193 110.266 -0.00310726 108.719 2.38624e-05 107.156V19.8438ZM95.25 111.125C98.1869 111.125 100.441 109.45 102.021 107.625C102.751 106.783 103.188 105.41 103.188 103.41V19.8438C103.188 18.7912 102.769 17.7817 102.025 17.0374C101.281 16.2931 100.271 15.875 99.2188 15.875H11.9063C10.8537 15.875 9.84423 16.2931 9.09994 17.0374C8.35566 17.7817 7.93752 18.7912 7.93752 19.8438V107.156C7.93752 109.363 9.70759 111.125 11.8825 111.125H95.25Z" fill="black" fill-opacity="0.7"/>
<path id="Vector_2" d="M15.875 23.8125H95.25V39.6875H15.875V23.8125ZM15.875 47.625H47.625V71.4375H15.875V47.625ZM15.875 79.375H47.625V87.3125H15.875V79.375ZM15.875 95.25H47.625V103.188H15.875V95.25ZM55.5625 47.625H71.4375V55.5625H55.5625V47.625ZM79.375 47.625H95.25V55.5625H79.375V47.625ZM55.5625 63.5H71.4375V71.4375H55.5625V63.5ZM79.375 63.5H95.25V71.4375H79.375V63.5ZM55.5625 79.375H71.4375V87.3125H55.5625V79.375ZM79.375 79.375H95.25V87.3125H79.375V79.375ZM55.5625 95.25H71.4375V103.188H55.5625V95.25ZM79.375 95.25H95.25V103.188H79.375V95.25Z" fill="black" fill-opacity="0.7"/>
</g>
<defs>
<clipPath id="clip0_4_38">
<rect width="127" height="127" fill="white"/>
</clipPath>
</defs>
</svg>
