<svg width="128" height="128" viewBox="0 0 128 128" fill="none" xmlns="http://www.w3.org/2000/svg">
<g id="PersonVideo2" clip-path="url(#clip0_4_35)">
<path id="Vector" d="M80 72.4C85.3043 72.4 90.3914 70.2929 94.1421 66.5421C97.8929 62.7914 100 57.7043 100 52.4C100 47.0957 97.8929 42.0086 94.1421 38.2579C90.3914 34.5071 85.3043 32.4 80 32.4C74.6957 32.4 69.6086 34.5071 65.8579 38.2579C62.1071 42.0086 60 47.0957 60 52.4C60 57.7043 62.1071 62.7914 65.8579 66.5421C69.6086 70.2929 74.6957 72.4 80 72.4Z" fill="black" fill-opacity="0.7"/>
<path id="Vector_2" d="M16 8C11.7565 8 7.68687 9.68571 4.68629 12.6863C1.68571 15.6869 0 19.7565 0 24L0 96C0 100.243 1.68571 104.313 4.68629 107.314C7.68687 110.314 11.7565 112 16 112H112C116.243 112 120.313 110.314 123.314 107.314C126.314 104.313 128 100.243 128 96V24C128 19.7565 126.314 15.6869 123.314 12.6863C120.313 9.68571 116.243 8 112 8H16ZM8 24C8 21.8783 8.84285 19.8434 10.3431 18.3431C11.8434 16.8429 13.8783 16 16 16H32V32H8V24ZM40 104V16H112C114.122 16 116.157 16.8429 117.657 18.3431C119.157 19.8434 120 21.8783 120 24V96C120 98.28 119.04 100.344 117.52 101.8C113.2 91.952 102.576 80 80 80C55.704 80 45.24 93.84 41.616 104H40ZM8 88H32V104H16C13.8783 104 11.8434 103.157 10.3431 101.657C8.84285 100.157 8 98.1217 8 96V88ZM32 80H8V64H32V80ZM32 56H8V40H32V56Z" fill="black" fill-opacity="0.7"/>
</g>
<defs>
<clipPath id="clip0_4_35">
<rect width="128" height="128" fill="white"/>
</clipPath>
</defs>
</svg>
